HIERARCHY
ROOT hip
{
	OFFSET 0.000000 0.000000 0.000000 
	CHANNELS 6 Xposition Yposition Zposition Xrotation Zrotation Yrotation
	JOINT abdomen
	{
		OFFSET 0.000000 3.402643 0.000000 
		CHANNELS 3 Xrotation Zrotation Yrotation
		JOINT chest
		{
			OFFSET 0.000000 8.438565 -0.680529 
			CHANNELS 3 Xrotation Zrotation Yrotation
			JOINT neck
			{
				OFFSET 0.000000 9.885400 -0.272212 
				CHANNELS 3 Xrotation Zrotation Yrotation
				JOINT head
				{
					OFFSET 0.000000 3.130431 0.000000 
					CHANNELS 3 Xrotation Zrotation Yrotation
					End Site
					{
						OFFSET 0.000000 3.039250 0.000000 
					}
				}
			}
			JOINT lCollar
			{
				OFFSET 3.238290 6.669187 -0.816635 
				CHANNELS 3 Yrotation Zrotation Xrotation
				JOINT lShldr
				{
					OFFSET 2.515050 0.000000 0.000000 
					CHANNELS 3 Zrotation Yrotation Xrotation
					JOINT lForeArm
					{
						OFFSET 11.517700 0.000000 0.000000 
						CHANNELS 3 Yrotation Zrotation Xrotation
						JOINT lHand
						{
							OFFSET 9.026700 0.000000 0.000000 
							CHANNELS 3 Zrotation Yrotation Xrotation
							End Site
							{
								OFFSET 4.028470 0.000000 0.000000 
							}
						}
					}
				}
			}
			JOINT rCollar
			{
				OFFSET -3.238290 6.669187 -0.816635 
				CHANNELS 3 Yrotation Zrotation Xrotation
				JOINT rShldr
				{
					OFFSET -2.515050 0.000000 0.000000 
					CHANNELS 3 Zrotation Yrotation Xrotation
					JOINT rForeArm
					{
						OFFSET -11.517700 0.000000 0.000000 
						CHANNELS 3 Yrotation Zrotation Xrotation
						JOINT rHand
						{
							OFFSET -9.026700 0.000000 0.000000 
							CHANNELS 3 Zrotation Yrotation Xrotation
							End Site
							{
								OFFSET -4.028470 0.000000 0.000000 
							}
						}
					}
				}
			}
		}
	}
	JOINT lThigh
	{
		OFFSET 4.983750 -1.633274 1.361059 
		CHANNELS 3 Xrotation Zrotation Yrotation
		JOINT lShin
		{
			OFFSET -2.041588 -20.007561 0.000000 
			CHANNELS 3 Xrotation Zrotation Yrotation
			JOINT lFoot
			{
				OFFSET 0.000000 -19.190928 -1.224953 
				CHANNELS 3 Xrotation Yrotation Zrotation
				End Site
				{
					OFFSET 0.000000 -2.449906 4.627600 
				}
			}
		}
	}
	JOINT rThigh
	{
		OFFSET -4.983750 -1.633274 1.361059 
		CHANNELS 3 Xrotation Zrotation Yrotation
		JOINT rShin
		{
			OFFSET 2.041588 -20.007561 0.000000 
			CHANNELS 3 Xrotation Zrotation Yrotation
			JOINT rFoot
			{
				OFFSET 0.000000 -19.190928 -1.224953 
				CHANNELS 3 Xrotation Yrotation Zrotation
				End Site
				{
					OFFSET 0.000000 -2.449906 4.627600 
				}
			}
		}
	}
}
MOTION
Frames: 20
Frame Time: 0.050666
0.000000 41.715443 0.000000 0.605472 0.185537 0.020256 0.020256 0.020256 0.020256 -3.798833 -0.097442 0.035767 14.931664 0.020256 0.020256 -4.316407 -0.039012 0.021521 -0.920712 9.108618 -2.836690 -4.086200 4.734804 -5.378169 2.467895 -5.026680 10.481557 2.046122 -3.569463 -3.520764 0.970144 -8.778749 -2.840786 5.241841 -14.478078 -2.083119 -0.734736 3.059531 8.128551 -0.787498 3.342638 -3.454949 -6.103044 11.483025 5.222813 23.378122 -1.906947 8.304164 -14.869064 1.509567 -11.537972 -4.627110 -12.473347 -4.201140 22.598431 2.760270 -12.830144 -14.641275 -1.666010 12.874125 
0.027151 41.703430 -0.001213 0.556645 0.224599 0.168240 0.000000 0.000000 0.000000 -3.642593 -0.165680 0.000782 14.941360 0.061274 0.007248 -3.818408 -0.361005 0.171519 -0.786454 9.177455 -2.716250 -4.229618 4.576429 -5.775922 2.491744 -4.817024 11.165358 1.610661 -3.341723 -3.485001 0.991551 -8.834669 -2.697235 5.406686 -14.642372 -2.406348 -0.765190 2.945366 8.086804 -0.586541 3.423177 -3.443158 -6.150468 11.430911 5.151486 23.488443 -1.878422 8.059541 -14.956771 1.531301 -11.495859 -4.560507 -12.518551 -4.215256 22.691626 2.703837 -12.776574 -14.753579 -1.685011 12.944445 
0.045167 41.714066 -0.001651 0.263683 0.537104 0.188114 0.000000 0.000000 0.000000 -3.310628 -0.399722 0.081715 15.234507 -0.169748 0.137662 -3.691427 -0.243945 0.224620 -0.829718 8.879486 -2.409729 -4.084213 4.693923 -5.827458 2.528220 -4.734666 11.543667 1.554460 -3.384284 -3.491864 1.107148 -9.057425 -2.391285 5.548110 -14.699821 -2.562305 -0.728123 2.855031 8.112012 -0.247517 3.326025 -3.422475 -5.700638 11.009936 5.030817 23.173765 -1.834919 8.212751 -14.788167 1.521298 -11.485705 -4.296410 -12.878689 -4.403574 22.786831 2.663858 -12.572898 -14.801641 -1.691425 12.964217 
0.063185 41.721447 -0.013425 0.644543 0.341775 0.375004 0.000000 0.000000 0.000000 -3.496125 -0.243686 0.024653 15.253907 -0.003311 0.106146 -3.838031 -0.614676 0.328941 -0.788036 9.115948 -2.580409 -4.252686 4.773276 -5.377089 2.450501 -4.981225 10.575191 2.144521 -3.416654 -3.526473 0.978244 -8.996933 -2.561548 5.464629 -14.564110 -2.360218 -0.724149 2.959975 7.998153 -0.407839 3.384948 -3.431948 -6.229589 11.257790 5.098080 23.337444 -1.943950 8.095070 -14.828189 1.496986 -11.378864 -4.501050 -12.700828 -4.291234 22.504988 2.722729 -12.853406 -14.656355 -1.678217 12.989098 
0.075071 41.705559 -0.036809 0.898443 0.205053 0.472008 0.000000 0.000000 0.000000 -3.544927 -0.097469 0.035335 15.253948 -0.042506 0.141663 -3.564570 -0.595277 0.266675 -0.892747 9.033306 -2.610126 -4.095095 4.950003 -5.281871 2.470963 -5.060110 10.112576 2.021942 -3.336129 -3.509806 1.076985 -8.934609 -2.599734 5.325603 -14.574668 -2.314350 -0.724423 2.977657 8.028001 -0.307271 3.342031 -3.426031 -6.649054 11.168801 4.681572 23.533228 -1.537880 8.113079 -14.933591 1.527280 -11.595887 -4.823184 -12.574227 -4.205684 22.594757 2.752779 -13.212539 -14.618154 -1.689072 13.058888 
0.079070 41.727207 -0.032629 0.722671 0.361299 0.453842 0.000000 0.000000 0.000000 -3.232459 -0.273002 0.103309 15.351782 -0.137779 0.288371 -3.300805 -0.283047 0.312145 -0.681086 8.871103 -2.340502 -3.951340 4.783653 -5.488501 2.482440 -4.935195 10.692576 1.906574 -3.372557 -3.512671 1.248091 -8.915039 -2.301611 5.476321 -14.534428 -2.468020 -0.687469 2.914760 8.083384 -0.442564 3.637234 -3.424538 -6.318145 11.180824 5.025911 23.289364 -1.928596 8.091113 -14.803622 1.481693 -11.320748 -4.579838 -12.771276 -4.339164 22.469130 2.792569 -12.911446 -14.608204 -1.684098 12.984541 
0.087583 41.727829 -0.018779 0.947277 0.283164 0.629734 0.000000 0.000000 0.000000 -3.281273 -0.214492 0.070891 15.517700 -0.165200 0.252070 -3.720728 -0.263455 0.274365 -0.800995 8.935960 -2.380902 -3.985530 4.931260 -5.178634 2.485455 -5.071511 10.397696 2.141375 -3.524473 -3.526500 1.325295 -8.958693 -2.342906 5.579438 -14.564157 -2.161038 -0.706869 3.026693 8.175357 -0.593376 3.373852 -3.443171 -6.628349 11.098183 4.710894 23.300751 -1.643601 8.105465 -14.789266 1.519708 -11.475596 -4.677690 -12.704208 -4.323514 22.353273 2.851522 -13.161860 -14.567177 -1.691164 13.001309 
0.097464 41.721077 -0.016389 1.132824 0.253857 0.796085 0.000000 0.000000 0.000000 -3.251970 -0.185248 0.049588 15.478603 -0.248957 0.237245 -3.837895 -0.107324 0.170592 -0.664430 9.027395 -2.363587 -4.104511 4.852312 -5.281991 2.450832 -5.061700 10.081093 2.205992 -3.618338 -3.529948 1.166028 -9.029519 -2.334589 5.653009 -14.514196 -2.418173 -0.679020 2.947506 8.181715 -0.184523 3.584129 -3.408522 -6.904257 11.015171 4.526229 23.381063 -1.468173 8.124617 -14.815435 1.516141 -11.576770 -4.831726 -12.668415 -4.286074 22.367195 2.839488 -13.464750 -14.551785 -1.693699 13.108986 
0.110979 41.717197 -0.021145 1.162115 0.185509 0.697159 0.000000 0.000000 0.000000 -3.154304 -0.117010 0.123636 15.527360 -0.144745 0.243721 -3.652422 -0.478145 0.223913 -0.308319 9.577400 -2.295404 -4.467118 4.811764 -5.319932 2.354497 -5.007915 10.130524 2.334980 -3.326646 -3.528151 1.451867 -8.853742 -2.228675 5.252769 -14.790643 -2.045478 -0.707029 3.016933 8.175050 -0.620527 3.499407 -3.435156 -6.980431 11.187325 4.730983 23.551828 -1.693962 8.091705 -14.911611 1.503996 -11.432306 -4.861269 -12.590653 -4.204264 22.337179 2.780569 -13.272779 -14.573733 -1.689073 13.090218 
0.122740 41.721321 0.002628 1.025396 0.185517 0.589294 0.000000 0.000000 0.000000 -2.968754 -0.087773 0.219396 15.683730 -0.085429 0.368409 -3.837994 -0.526865 0.305666 -0.405888 9.412063 -2.113496 -3.924406 5.115504 -5.556643 2.477382 -4.869817 10.335440 1.866918 -3.365202 -3.500598 1.286288 -9.097138 -2.077521 5.243057 -14.565848 -2.122437 -0.688885 3.021457 8.252653 -0.646307 3.439163 -3.446694 -6.727216 11.061915 4.590122 23.442625 -1.464975 8.190290 -14.926798 1.528364 -11.573198 -4.685365 -12.638645 -4.321058 22.272438 2.869930 -13.173359 -14.542794 -1.691754 13.032910 
0.137126 41.713314 0.014564 1.025394 0.136697 0.520054 0.000000 0.000000 0.000000 -2.978516 -0.009752 0.254414 15.917902 -0.084344 0.470921 -4.277405 -0.370625 0.311620 -0.265604 9.494246 -2.127180 -3.832972 5.126338 -5.366648 2.322134 -4.962022 9.919475 2.386213 -3.362620 -3.540779 1.264803 -9.234015 -2.094218 5.244946 -14.516661 -2.241907 -0.664409 2.950132 8.445279 -0.981545 3.634241 -3.456904 -6.756217 11.100378 4.599331 23.553732 -1.477292 8.289001 -14.984678 1.535831 -11.592876 -4.685589 -12.609944 -4.290829 22.290110 2.859409 -13.086181 -14.579995 -1.688422 13.047060 
0.157648 41.723827 0.032693 0.898443 0.195289 0.325367 0.000000 0.000000 0.000000 -2.919922 -0.019506 0.323261 16.113249 -0.090129 0.492278 -4.902357 -0.155958 0.214633 -0.136854 9.488387 -2.080530 -3.952314 5.135291 -5.470349 2.188975 -4.871601 10.072009 2.431314 -3.457676 -3.543068 1.424888 -9.190074 -2.031600 5.147723 -14.546174 -2.315222 -0.677012 2.922796 8.571678 -0.747488 3.491791 -3.442811 -6.501216 11.010035 4.654666 23.432741 -1.527495 8.529663 -14.961107 1.524360 -11.609236 -4.549805 -12.719967 -4.338939 22.185570 2.850810 -12.919566 -14.501054 -1.677177 13.028756 
0.186922 41.723827 0.035883 1.093758 0.214805 0.267815 0.000000 0.000000 0.000000 -3.095704 0.039005 0.378750 15.908000 -0.059887 0.553474 -4.736361 -0.253475 0.219870 -0.077803 9.389143 -2.248130 -4.074248 4.918811 -5.769290 2.186558 -4.824247 9.892413 2.185987 -3.453239 -3.528769 1.387737 -9.125860 -2.201377 5.164895 -14.566067 -2.167345 -0.701514 2.994129 8.379054 -0.455255 3.685392 -3.425125 -6.648358 11.021556 4.670541 23.429646 -1.591259 8.303038 -15.033792 1.527474 -11.510614 -4.715166 -12.708590 -4.232939 22.125652 2.752841 -12.843741 -14.483380 -1.690928 13.097301 
0.204689 41.716568 0.048608 1.074233 0.292917 0.093437 0.000000 0.000000 0.000000 -3.046875 0.029255 0.428130 15.692482 -0.187732 0.650550 -4.765632 0.116985 0.139597 -0.008544 9.131532 -2.198475 -4.033429 4.762951 -5.708059 2.290812 -4.912404 9.767803 2.226855 -3.480075 -3.531654 1.439608 -9.038826 -2.153875 5.244070 -14.585229 -2.171315 -0.754352 3.010114 8.606256 -0.761594 3.725743 -3.443395 -6.609841 11.041624 4.809540 23.502106 -1.810937 8.529921 -15.079865 1.505796 -11.435580 -4.793219 -12.805912 -4.212214 22.253275 2.704271 -12.678562 -14.540191 -1.679676 13.105168 
0.219454 41.733086 0.076171 1.171904 0.400307 0.037560 0.000000 0.000000 0.000000 -3.134766 -0.009751 0.361862 15.517056 -0.182567 0.631647 -4.667969 -0.019499 0.206193 0.146830 9.370744 -2.297110 -4.515435 4.516218 -5.907404 2.527493 -4.891835 9.850758 2.138831 -3.642039 -3.526553 1.375892 -9.126024 -2.230408 5.373012 -14.477016 -2.238377 -0.719224 3.028034 8.312413 -0.502746 3.496674 -3.428076 -6.512101 10.758260 4.593449 23.183184 -1.633439 8.834981 -14.949674 1.523148 -11.543747 -4.823302 -12.955256 -4.283609 22.132429 2.732100 -12.700543 -14.468577 -1.670843 13.107550 
0.239973 41.722954 0.111816 1.162125 0.292908 -0.052597 0.000000 0.000000 0.000000 -3.173836 0.126758 0.325002 15.458708 -0.013139 0.639849 -4.648483 -0.302247 0.349204 -0.014561 9.504654 -2.321310 -4.488802 4.733005 -5.457326 2.398105 -5.079507 9.325340 2.045521 -3.559716 -3.520763 1.641241 -8.903511 -2.248530 5.164252 -14.742113 -2.079993 -0.702844 3.020649 7.959856 -0.625602 3.420837 -3.445516 -6.454848 10.858611 4.625571 23.332933 -1.605065 8.607882 -15.182764 1.552508 -11.534303 -4.734027 -12.892532 -4.315286 22.076239 2.791537 -12.469519 -14.538409 -1.687168 13.057373 
0.255488 41.743843 0.135026 1.142616 0.468657 -0.361665 0.000000 0.000000 0.000000 -3.154297 0.009751 0.399855 15.517895 -0.023536 0.721047 -4.960956 -0.185188 0.382629 0.176403 9.525784 -2.316492 -4.550694 4.653836 -5.655311 2.356072 -4.971362 9.629254 2.516774 -3.413253 -3.548199 1.768794 -8.888881 -2.226089 4.984905 -14.713831 -2.002760 -0.687674 3.015989 8.184140 -0.489470 3.438769 -3.437255 -6.161863 10.595161 4.580942 22.961390 -1.591126 9.108510 -15.003352 1.557197 -11.625757 -4.745336 -13.160656 -4.420228 21.979311 2.830889 -12.147267 -14.456988 -1.667551 12.977713 
0.281386 41.728458 0.152305 1.298874 0.478393 -0.643365 0.000000 0.000000 0.000000 -3.261720 0.048749 0.544097 15.410902 0.033428 0.819908 -4.843761 -0.146219 0.340839 0.278242 9.510567 -2.405034 -4.351017 4.528439 -5.459264 2.377207 -5.111562 9.277026 2.239152 -3.361907 -3.532200 1.817070 -8.749372 -2.332222 4.778132 -14.695064 -2.041255 -0.689365 2.992178 8.251748 -0.329866 3.555911 -3.417422 -6.247683 10.561656 4.519128 23.080805 -1.595511 9.159721 -15.192718 1.565129 -11.626493 -5.009331 -13.230054 -4.380023 22.128302 2.841632 -11.706833 -14.575736 -1.680482 12.930425 
0.302780 41.742596 0.168431 1.347711 0.517435 -0.886173 0.000000 0.000000 0.000000 -3.310554 0.116992 0.637764 15.390413 -0.027696 0.897111 -4.736330 -0.048745 0.266517 0.318639 9.439690 -2.456631 -4.357614 4.509583 -5.283937 2.211730 -5.142710 9.355198 2.606534 -3.280495 -3.543552 1.903591 -8.775421 -2.381259 4.779266 -14.704649 -2.099869 -0.677556 2.979849 8.133890 -0.414429 3.658480 -3.422763 -6.190804 10.486928 4.578956 22.967325 -1.684339 9.666111 -15.108358 1.552757 -11.652681 -5.027586 -13.255311 -4.369527 21.971701 2.792674 -11.589550 -14.485663 -1.664507 12.914384 
0.323800 41.746349 0.182082 1.152393 0.527237 -0.926800 0.000000 0.000000 0.000000 -3.144542 0.146264 0.597433 15.459672 0.111806 0.753925 -4.589950 -0.468022 0.280018 0.295667 9.528524 -2.293926 -4.560019 4.341099 -5.703409 2.296658 -4.991277 9.606884 2.263018 -3.272379 -3.523580 1.903376 -8.622427 -2.227104 4.759525 -14.675407 -2.108566 -0.701091 2.986210 8.349518 -0.771362 3.725157 -3.443983 -6.004560 10.475353 4.661558 22.979374 -1.750786 9.837616 -15.082589 1.551606 -11.619911 -4.773160 -13.312386 -4.471494 21.883574 2.821866 -11.453681 -14.448032 -1.652713 12.886513 
